#!OML:ASF H:\Male1\Project 1\Capture day 1\Session 1\Male1.ASF
:FULLY-SPECIFIED
:DEGREES
556
root 16.9641 15.5075 -2.16078 182.286 -83.3348 -184.626
lowerback 5.43495 1.59623 -1.86211
upperback 2.77302 1.95145 -1.46604
thorax -0.20569 0.935454 -0.568237
lowerneck -8.76331 2.77506 6.63921
upperneck 7.04745 3.22405 -3.76812
head 3.69901 1.5899 -2.03579
rclavicle -4.42296e-015 1.11319e-014
rhumerus -35.0705 20.5177 -100.747
rradius 31.945
rwrist -17.7717
rhand -16.6915 1.07486
rfingers 7.12502
rthumb 9.53303 -28.6895
lclavicle -4.42296e-015 1.11319e-014
lhumerus -31.9002 13.434 82.04
lradius 21.4506
lwrist -8.90942
lhand -14.8198 11.1494
lfingers 7.12502
lthumb 11.3385 40.8229
rfemur -1.17665 20.5552 20.4945
rtibia 19.614
rfoot -35.2419 -35.6537
rtoes -6.69399
lfemur -0.0111406 -21.2583 -20.7897
ltibia 19.363
lfoot -26.1948 31.6399
ltoes 4.81953
557
root 16.9617 15.5077 -2.15503 181.572 -83.1611 -183.92
lowerback 5.34602 1.68425 -1.83697
upperback 2.77469 2.07328 -1.45132
thorax -0.154664 0.996513 -0.571223
lowerneck -8.72165 2.72837 6.60095
upperneck 6.97921 3.15593 -3.63615
head 3.66517 1.56151 -1.994
rclavicle 1.6847e-014 -4.77083e-015
rhumerus -35.0908 19.8075 -100.689
rradius 31.3927
rwrist -18.2645
rhand -16.8164 0.833725
rfingers 7.12502
rthumb 9.41254 -28.9361
lclavicle 1.6847e-014 -4.77083e-015
lhumerus -31.9087 11.2364 82.8102
lradius 22.0786
lwrist -8.27814
lhand -15.6402 10.923
lfingers 7.12502
lthumb 10.5472 40.6384
rfemur -1.2282 20.4705 20.5193
rtibia 19.6602
rfoot -34.9611 -35.563
rtoes -7.17185
lfemur 0.0837659 -21.2607 -20.7753
ltibia 19.3158
lfoot -26.3749 31.746
ltoes 5.20491
558
root 16.9619 15.5065 -2.15181 180.542 -83.011 -182.919
lowerback 5.30238 1.70927 -1.80864
upperback 2.79308 2.11034 -1.40105
thorax -0.112541 1.01489 -0.535817
lowerneck -8.8847 2.83394 6.44735
upperneck 6.60817 3.26481 -3.23247
head 3.97661 1.63998 -2.04565
rclavicle 3.05134e-014 -1.23246e-014
rhumerus -35.1568 19.5884 -100.805
rradius 30.8281
rwrist -19.1879
rhand -17.371 0.518832
rfingers 7.12502
rthumb 8.87732 -29.2744
lclavicle 3.05134e-014 -1.23246e-014
lhumerus -31.9911 8.842 83.6073
lradius 22.8722
lwrist -7.72732
lhand -16.2116 10.7335
lfingers 7.12502
lthumb 9.99597 40.4761
rfemur -1.25304 20.5564 20.6432
rtibia 19.7216
rfoot -34.8341 -35.5976
rtoes -7.508
lfemur 0.189148 -21.2552 -20.698
ltibia 19.266
lfoot -26.5569 31.7777
ltoes 5.70664
559
root 16.96 15.5038 -2.14995 181.146 -82.9578 -183.614
lowerback 5.2489 1.72167 -1.9499
upperback 2.84325 2.12098 -1.43053
thorax -0.0351548 1.01747 -0.48515
lowerneck -8.8057 2.72705 6.1651
upperneck 6.58002 3.13248 -2.90508
head 3.92559 1.5817 -1.88976
rclavicle 1.16289e-014 2.22639e-014
rhumerus -35.0959 18.8875 -100.668
rradius 30.3052
rwrist -19.4712
rhand -17.5879 -0.249866
rfingers 7.12502
rthumb 8.66802 -30.0519
lclavicle 1.16289e-014 2.22639e-014
lhumerus -31.9897 6.00585 84.51
lradius 23.6614
lwrist -6.85041
lhand -16.7141 10.9929
lfingers 7.12502
lthumb 9.51125 40.7582
rfemur -1.17689 20.622 20.5846
rtibia 19.7876
rfoot -34.8967 -35.5904
rtoes -7.54085
lfemur 0.327344 -21.1863 -20.8351
ltibia 19.2224
lfoot -26.602 31.7371
ltoes 5.91079
560
root 16.9579 15.5018 -2.14684 182.848 -82.9992 -185.401
lowerback 5.16103 1.72481 -2.18248
upperback 2.90628 2.11587 -1.50177
thorax 0.0730694 1.01061 -0.4242
lowerneck -8.88802 2.75217 6.19906
upperneck 6.58565 3.15474 -2.88277
head 3.94552 1.59417 -1.88657
rclavicle -6.26172e-015 5.56597e-015
rhumerus -34.9684 18.0636 -100.415
rradius 29.9619
rwrist -19.9
rhand -17.4008 -1.02889
rfingers 7.12502
rthumb 8.84856 -30.8234
lclavicle -6.26172e-015 5.56597e-015
lhumerus -31.8915 3.14759 85.4414
lradius 24.4288
lwrist -5.80148
lhand -16.9355 11.6268
lfingers 7.12502
lthumb 9.29761 41.4017
rfemur -1.11651 20.552 20.3564
rtibia 19.8779
rfoot -35.0933 -35.4366
rtoes -7.15951
lfemur 0.432696 -21.0803 -21.1012
ltibia 19.1635
lfoot -26.4366 31.7007
ltoes 5.54104
